
<svg height="176" viewBox="0 0 288 176" width="288" xmlns="http://www.w3.org/2000/svg"><path d="m288 128.264865v43.735135c0 2.209139-1.790861 4-4 4h-280c-2.209139 0-4-1.790861-4-4v-43.735135c4.418278 0 8-3.562361 8-7.956757 0-4.394395-3.581722-7.956757-8-7.956757v-108.351351c0-2.209139 1.790861-4 4-4h280c2.209139 0 4 1.790861 4 4v108.351351c-4.418278 0-8 3.562362-8 7.956757 0 4.394396 3.581722 7.956757 8 7.956757zm-271.5027027-8.951351c-.2746497 0-.4972973.222647-.4972973.497297s.2226476.497297.4972973.497297h5.0054054c.2746497 0 .4972973-.222647.4972973-.497297s-.2226476-.497297-.4972973-.497297zm40 0c-.2746497 0-.4972973.222647-.4972973.497297s.2226476.497297.4972973.497297h5.0054054c.2746497 0 .4972973-.222647.4972973-.497297s-.2226476-.497297-.4972973-.497297zm-20 0c-.2746497 0-.4972973.222647-.4972973.497297s.2226476.497297.4972973.497297h5.0054054c.2746497 0 .4972973-.222647.4972973-.497297s-.2226476-.497297-.4972973-.497297zm40 0c-.2746497 0-.4972973.222647-.4972973.497297s.2226476.497297.4972973.497297h5.0054054c.2746497 0 .4972973-.222647.4972973-.497297s-.2226476-.497297-.4972973-.497297zm-50 0c-.2746497 0-.4972973.222647-.4972973.497297s.2226476.497297.4972973.497297h5.0054054c.2746497 0 .4972973-.222647.4972973-.497297s-.2226476-.497297-.4972973-.497297zm40 0c-.2746497 0-.4972973.222647-.4972973.497297s.2226476.497297.4972973.497297h5.0054054c.2746497 0 .4972973-.222647.4972973-.497297s-.2226476-.497297-.4972973-.497297zm-20 0c-.2746497 0-.4972973.222647-.4972973.497297s.2226476.497297.4972973.497297h5.0054054c.2746497 0 .4972973-.222647.4972973-.497297s-.2226476-.497297-.4972973-.497297zm40 0c-.2746497 0-.4972973.222647-.4972973.497297s.2226476.497297.4972973.497297h5.0054054c.2746497 0 .4972973-.222647.4972973-.497297s-.2226476-.497297-.4972973-.497297zm10 0c-.2746497 0-.4972973.222647-.4972973.497297s.2226476.497297.4972973.497297h5.0054057c.274649 0 .497297-.222647.497297-.497297s-.222648-.497297-.497297-.497297zm19.9999997 0c-.274649 0-.497297.222647-.497297.497297s.222648.497297.497297.497297h5.005406c.274649 0 .497297-.222647.497297-.497297s-.222648-.497297-.497297-.497297zm-10 0c-.274649 0-.497297.222647-.497297.497297s.222648.497297.497297.497297h5.005406c.274649 0 .497297-.222647.497297-.497297s-.222648-.497297-.497297-.497297zm20 0c-.274649 0-.497297.222647-.497297.497297s.222648.497297.497297.497297h5.005406c.274649 0 .497297-.222647.497297-.497297s-.222648-.497297-.497297-.497297zm10 0c-.274649 0-.497297.222647-.497297.497297s.222648.497297.497297.497297h5.005406c.274649 0 .497297-.222647.497297-.497297s-.222648-.497297-.497297-.497297zm20 0c-.274649 0-.497297.222647-.497297.497297s.222648.497297.497297.497297h5.005406c.274649 0 .497297-.222647.497297-.497297s-.222648-.497297-.497297-.497297zm-10 0c-.274649 0-.497297.222647-.497297.497297s.222648.497297.497297.497297h5.005406c.274649 0 .497297-.222647.497297-.497297s-.222648-.497297-.497297-.497297zm20 0c-.274649 0-.497297.222647-.497297.497297s.222648.497297.497297.497297h5.005406c.274649 0 .497297-.222647.497297-.497297s-.222648-.497297-.497297-.497297zm10 0c-.274649 0-.497297.222647-.497297.497297s.222648.497297.497297.497297h5.005406c.274649 0 .497297-.222647.497297-.497297s-.222648-.497297-.497297-.497297zm20 0c-.274649 0-.497297.222647-.497297.497297s.222648.497297.497297.497297h5.005406c.274649 0 .497297-.222647.497297-.497297s-.222648-.497297-.497297-.497297zm-10 0c-.274649 0-.497297.222647-.497297.497297s.222648.497297.497297.497297h5.005406c.274649 0 .497297-.222647.497297-.497297s-.222648-.497297-.497297-.497297zm20 0c-.274649 0-.497297.222647-.497297.497297s.222648.497297.497297.497297h5.005406c.274649 0 .497297-.222647.497297-.497297s-.222648-.497297-.497297-.497297zm10 0c-.274649 0-.497297.222647-.497297.497297s.222648.497297.497297.497297h5.005406c.274649 0 .497297-.222647.497297-.497297s-.222648-.497297-.497297-.497297zm20 0c-.274649 0-.497297.222647-.497297.497297s.222648.497297.497297.497297h5.005406c.274649 0 .497297-.222647.497297-.497297s-.222648-.497297-.497297-.497297zm-10 0c-.274649 0-.497297.222647-.497297.497297s.222648.497297.497297.497297h5.005406c.274649 0 .497297-.222647.497297-.497297s-.222648-.497297-.497297-.497297zm20 0c-.274649 0-.497297.222647-.497297.497297s.222648.497297.497297.497297h5.005406c.274649 0 .497297-.222647.497297-.497297s-.222648-.497297-.497297-.497297zm10 0c-.274649 0-.497297.222647-.497297.497297s.222648.497297.497297.497297h5.005406c.274649 0 .497297-.222647.497297-.497297s-.222648-.497297-.497297-.497297zm10 0c-.274649 0-.497297.222647-.497297.497297s.222648.497297.497297.497297h5.005406c.274649 0 .497297-.222647.497297-.497297s-.222648-.497297-.497297-.497297z" fill-rule="evenodd" transform=""/></svg>